<svg xmlns="http://www.w3.org/2000/svg" version="1.1" xmlns:xlink="http://www.w3.org/1999/xlink" xmlns:svgjs="http://svgjs.dev/svgjs" width="1500" height="935" viewBox="0 0 1500 935"><g transform="matrix(1,0,0,1,-0.9090909090909918,93.46923874371237)"><svg viewBox="0 0 396 247" data-background-color="#ffffff" preserveAspectRatio="xMidYMid meet" height="935" width="1500" xmlns="http://www.w3.org/2000/svg" xmlns:xlink="http://www.w3.org/1999/xlink"><g id="tight-bounds" transform="matrix(1,0,0,1,0.2400000000000091,-0.09999999999999432)"><svg viewBox="0 0 395.52 247.2" height="247.2" width="395.52"><g><svg></svg></g><g><svg viewBox="0 0 395.52 247.2" height="247.2" width="395.52"><g transform="matrix(1,0,0,1,75.54432,103.54876297059522)"><svg viewBox="0 0 244.43135999999998 40.10247405880954" height="40.10247405880954" width="244.43135999999998"><g><svg viewBox="0 0 244.43135999999998 40.10247405880954" height="40.10247405880954" width="244.43135999999998"><g><svg viewBox="0 0 244.43135999999998 40.10247405880954" height="40.10247405880954" width="244.43135999999998"><g><svg viewBox="0 0 244.43135999999998 40.10247405880954" height="40.10247405880954" width="244.43135999999998"><g id="textblocktransform"><svg viewBox="0 0 244.43135999999998 40.10247405880954" height="40.10247405880954" width="244.43135999999998" id="textblock"><g><svg viewBox="0 0 244.43135999999998 40.10247405880954" height="40.10247405880954" width="244.43135999999998"><g transform="matrix(1,0,0,1,0,0)"><svg width="244.43135999999998" viewBox="5.08 -37.45 308 50.540000000000006" height="40.10247405880954" data-palette-color="#4790fc"><path d="M5.08-35.77L9.86-35.77 9.86-13.55Q9.86-10.89 10.74-8.95 11.62-7.01 13.02-5.75 14.43-4.49 16.16-3.89 17.9-3.3 19.63-3.3L19.63-3.3Q21.39-3.3 22.97-3.92 24.56-4.54 25.74-5.77 26.93-7.01 27.64-8.85 28.34-10.69 28.34-13.16L28.34-13.16 28.34-35.77 32.74-35.77 32.74-13.21Q32.74-11.72 32.37-10.12 32.01-8.52 31.26-7.01 30.52-5.49 29.37-4.13 28.22-2.76 26.66-1.73 25.1-0.71 23.1-0.11 21.09 0.49 18.63 0.49L18.63 0.49Q15.63 0.49 13.13-0.45 10.64-1.39 8.85-3.19 7.06-4.98 6.07-7.6 5.08-10.23 5.08-13.57L5.08-13.57 5.08-35.77ZM42.11 0L42.11-25.88 45.73-25.88 46.46-21.39Q47.31-22.19 48.41-23.07 49.51-23.95 50.79-24.68 52.07-25.42 53.51-25.89 54.95-26.37 56.47-26.37L56.47-26.37Q58.25-26.37 59.68-25.68 61.11-25 62.12-23.77 63.13-22.53 63.68-20.84 64.23-19.14 64.23-17.14L64.23-17.14 64.23 0 59.59 0 59.59-16.7Q59.59-18.12 59.19-19.2 58.79-20.29 58.08-21.01 57.37-21.73 56.39-22.09 55.42-22.46 54.27-22.46L54.27-22.46Q52.24-22.46 50.44-21.39 48.63-20.31 46.75-18.55L46.75-18.55 46.75 0 42.11 0ZM72.8 0L72.8-25.88 77.44-25.88 77.44 0 72.8 0ZM75.14-31.49L75.14-31.49Q74.53-31.49 73.99-31.71 73.46-31.93 73.07-32.32 72.68-32.71 72.46-33.24 72.24-33.76 72.24-34.4L72.24-34.4Q72.24-35.03 72.48-35.6 72.72-36.16 73.13-36.57 73.53-36.99 74.08-37.22 74.63-37.45 75.24-37.45L75.24-37.45Q75.83-37.45 76.35-37.22 76.87-36.99 77.27-36.57 77.66-36.16 77.88-35.61 78.1-35.06 78.1-34.45L78.1-34.45Q78.1-33.79 77.85-33.24 77.61-32.69 77.2-32.31 76.8-31.93 76.26-31.71 75.73-31.49 75.14-31.49ZM96.62-3.3L96.62-3.3Q98.23-3.3 99.6-3.72 100.97-4.15 101.95-4.94 102.92-5.74 103.47-6.84 104.02-7.93 104.02-9.28L104.02-9.28Q104.02-10.86 103.28-11.96 102.53-13.06 101.32-13.89 100.11-14.72 98.55-15.37 96.99-16.02 95.38-16.69 93.77-17.36 92.2-18.14 90.64-18.92 89.43-20.04 88.22-21.17 87.48-22.69 86.74-24.22 86.74-26.39L86.74-26.39Q86.74-28.69 87.61-30.52 88.49-32.35 90.07-33.63 91.64-34.91 93.8-35.58 95.96-36.25 98.55-36.25L98.55-36.25Q100.14-36.25 102.53-35.95 104.92-35.64 107.61-34.84L107.61-34.84 106.8-30.59 106.32-30.35Q104.97-30.96 103.7-31.37 102.43-31.79 101.31-32.03 100.19-32.28 99.24-32.37 98.28-32.47 97.58-32.47L97.58-32.47Q96.14-32.47 94.98-32.12 93.82-31.76 93-31.09 92.18-30.42 91.73-29.46 91.28-28.49 91.28-27.27L91.28-27.27Q91.28-25.63 92.02-24.49 92.77-23.34 94-22.46 95.23-21.58 96.79-20.9 98.36-20.21 99.98-19.53 101.6-18.85 103.17-18.07 104.73-17.29 105.96-16.25 107.19-15.21 107.94-13.79 108.68-12.38 108.68-10.4L108.68-10.4Q108.68-8.23 107.74-6.26 106.8-4.3 105.11-2.8 103.41-1.29 101.03-0.4 98.65 0.49 95.77 0.49L95.77 0.49Q94.55 0.49 93.22 0.32 91.89 0.15 90.54-0.16 89.2-0.46 87.9-0.9 86.59-1.34 85.42-1.88L85.42-1.88 86.25-6.15 86.74-6.4Q89.23-4.96 91.78-4.13 94.33-3.3 96.62-3.3ZM137-4.83L137-2.2Q136.07-1.54 134.87-1.04 133.66-0.54 132.36-0.2 131.07 0.15 129.76 0.32 128.46 0.49 127.33 0.49L127.33 0.49Q124.84 0.49 122.6-0.34 120.35-1.17 118.67-2.78 116.98-4.39 115.98-6.77 114.98-9.16 114.98-12.26L114.98-12.26Q114.98-15.45 116.04-18.07 117.1-20.68 118.89-22.52 120.67-24.37 123-25.37 125.33-26.37 127.9-26.37L127.9-26.37Q129.97-26.37 131.76-25.67 133.56-24.98 134.89-23.58 136.22-22.19 136.98-20.1 137.73-18.02 137.73-15.23L137.73-15.23Q137.73-14.67 137.69-13.89 137.64-13.11 137.49-12.26L137.49-12.26 119.81-12.26Q119.81-10.16 120.56-8.51 121.3-6.86 122.66-5.73 124.01-4.59 125.89-4 127.77-3.42 130.04-3.42L130.04-3.42Q130.61-3.42 131.41-3.47 132.22-3.52 133.14-3.66 134.07-3.81 135.07-4.09 136.07-4.37 137-4.83L137-4.83ZM119.81-15.14L133.34-15.14Q133.34-16.97 132.83-18.37 132.31-19.78 131.44-20.73 130.56-21.68 129.4-22.17 128.24-22.66 126.92-22.66L126.92-22.66Q125.45-22.66 124.16-22.06 122.87-21.46 121.9-20.43 120.94-19.41 120.38-18.04 119.81-16.67 119.81-15.14L119.81-15.14ZM163.07-4.83L163.07-2.2Q161.56-1.03 159.47-0.27 157.38 0.49 154.92 0.49L154.92 0.49Q152.28 0.49 150.15-0.43 148.01-1.34 146.5-2.98 144.98-4.61 144.16-6.9 143.35-9.18 143.35-11.89L143.35-11.89Q143.35-15.04 144.42-17.7 145.5-20.36 147.36-22.29 149.23-24.22 151.77-25.29 154.31-26.37 157.21-26.37L157.21-26.37Q157.9-26.37 158.69-26.31 159.48-26.25 160.27-26.1 161.05-25.95 161.78-25.74 162.51-25.54 163.07-25.24L163.07-25.24 162.1-21.19 161.56-20.95Q161.07-21.31 160.45-21.63 159.83-21.95 159.13-22.17 158.43-22.39 157.69-22.52 156.95-22.66 156.24-22.66L156.24-22.66Q154.6-22.66 153.15-22.01 151.7-21.36 150.6-20.13 149.5-18.9 148.86-17.1 148.23-15.31 148.23-13.01L148.23-13.01Q148.23-10.67 148.9-8.89 149.57-7.1 150.74-5.88 151.92-4.66 153.53-4.04 155.14-3.42 157.02-3.42L157.02-3.42Q158.14-3.42 159.73-3.7 161.32-3.98 163.07-4.83L163.07-4.83ZM170.3 0L170.3-25.88 173.91-25.88 174.64-18.12Q174.96-18.73 175.31-19.37 175.67-20.02 176.02-20.63 176.38-21.24 176.72-21.78 177.06-22.31 177.33-22.71L177.33-22.71Q177.87-23.46 178.54-24.13 179.21-24.8 179.99-25.31 180.77-25.81 181.65-26.09 182.53-26.37 183.53-26.37L183.53-26.37Q184.24-26.37 184.87-26.21 185.51-26.05 185.92-25.68L185.92-25.68 185.43-21.34Q184.99-21.46 184.57-21.5 184.14-21.53 183.73-21.53L183.73-21.53Q181.99-21.53 180.71-20.97 179.43-20.41 178.42-19.45 177.4-18.48 176.58-17.19 175.77-15.89 174.94-14.4L174.94-14.4 174.94 0 170.3 0ZM211.09-4.83L211.09-2.2Q210.16-1.54 208.95-1.04 207.75-0.54 206.45-0.2 205.16 0.15 203.85 0.32 202.55 0.49 201.42 0.49L201.42 0.49Q198.93 0.49 196.69-0.34 194.44-1.17 192.76-2.78 191.07-4.39 190.07-6.77 189.07-9.16 189.07-12.26L189.07-12.26Q189.07-15.45 190.13-18.07 191.19-20.68 192.98-22.52 194.76-24.37 197.09-25.37 199.42-26.37 201.98-26.37L201.98-26.37Q204.06-26.37 205.85-25.67 207.65-24.98 208.98-23.58 210.31-22.19 211.07-20.1 211.82-18.02 211.82-15.23L211.82-15.23Q211.82-14.67 211.77-13.89 211.73-13.11 211.58-12.26L211.58-12.26 193.9-12.26Q193.9-10.16 194.65-8.51 195.39-6.86 196.75-5.73 198.1-4.59 199.98-4 201.86-3.42 204.13-3.42L204.13-3.42Q204.69-3.42 205.5-3.47 206.31-3.52 207.23-3.66 208.16-3.81 209.16-4.09 210.16-4.37 211.09-4.83L211.09-4.83ZM193.9-15.14L207.43-15.14Q207.43-16.97 206.92-18.37 206.4-19.78 205.52-20.73 204.65-21.68 203.49-22.17 202.33-22.66 201.01-22.66L201.01-22.66Q199.54-22.66 198.25-22.06 196.96-21.46 195.99-20.43 195.03-19.41 194.46-18.04 193.9-16.67 193.9-15.14L193.9-15.14ZM221.32-6.49L221.32-22.17 216.09-22.17 216.48-24.56Q218.39-24.95 219.54-25.55 220.68-26.15 221.43-27.05 222.17-27.95 222.67-29.24 223.17-30.52 223.81-32.3L223.81-32.3 225.96-32.3 225.96-25.88 235.33-25.88 234.36-22.17 225.96-22.17 225.96-7.71Q225.96-6.54 226.31-5.73 226.66-4.91 227.3-4.39 227.93-3.88 228.84-3.65 229.74-3.42 230.84-3.42L230.84-3.42Q231.96-3.42 233.07-3.63 234.18-3.83 235.19-4.2L235.19-4.2 235.19-1.56Q233.65-0.56 231.95-0.04 230.25 0.49 228.5 0.49L228.5 0.49Q226.86 0.49 225.54 0.02 224.22-0.44 223.28-1.32 222.34-2.2 221.83-3.5 221.32-4.81 221.32-6.49L221.32-6.49ZM256.28-3.86L256.28-3.86Q255.67-3.34 254.8-2.6 253.93-1.86 252.85-1.17 251.76-0.49 250.48 0 249.2 0.49 247.76 0.49L247.76 0.49Q246.46 0.49 245.23 0.04 244-0.42 243.04-1.31 242.09-2.2 241.52-3.52 240.94-4.83 240.94-6.54L240.94-6.54Q240.94-7.59 241.2-8.67 241.46-9.74 242.07-10.73 242.68-11.72 243.67-12.59 244.66-13.45 246.11-14.1 247.56-14.75 249.54-15.11 251.52-15.48 254.08-15.48L254.08-15.48 256.28-15.48 256.28-17.72Q256.28-18.85 255.89-19.75 255.5-20.65 254.8-21.3 254.1-21.95 253.14-22.3 252.17-22.66 251-22.66L251-22.66Q250.12-22.66 249.14-22.46 248.15-22.27 247.16-21.9 246.17-21.53 245.27-21.04 244.36-20.56 243.68-19.97L243.68-19.97 243.24-20.21 242.26-23.78Q243.68-24.56 245-25.06 246.32-25.56 247.52-25.85 248.73-26.15 249.83-26.26 250.93-26.37 251.93-26.37L251.93-26.37Q256.5-26.37 258.71-24.48 260.92-22.58 260.92-18.8L260.92-18.8 260.92-6.05Q260.92-5.74 260.96-5.29 261.01-4.83 261.2-4.42 261.38-4 261.73-3.71 262.09-3.42 262.7-3.42L262.7-3.42Q263.04-3.42 263.6-3.53 264.16-3.64 264.72-3.91L264.72-3.91 264.72-1.32Q263.55-0.51 262.37-0.01 261.18 0.49 260.08 0.49L260.08 0.49Q259.08 0.49 258.44 0.09 257.79-0.32 257.36-0.95 256.94-1.59 256.69-2.36 256.45-3.13 256.28-3.86ZM256.28-6.98L256.28-12.65 254.42-12.65Q251.56-12.65 249.87-12.24 248.17-11.84 247.28-11.17 246.39-10.5 246.11-9.62 245.83-8.74 245.83-7.79L245.83-7.79Q245.83-6.76 246.12-5.96 246.41-5.15 246.94-4.58 247.46-4 248.2-3.71 248.93-3.42 249.78-3.42L249.78-3.42Q250.44-3.42 251.14-3.58 251.83-3.74 252.63-4.14 253.42-4.54 254.31-5.22 255.2-5.91 256.28-6.98L256.28-6.98ZM270.36 0L270.36-25.88 273.97-25.88 274.71-18.12Q275.02-18.73 275.38-19.37 275.73-20.02 276.09-20.63 276.44-21.24 276.78-21.78 277.12-22.31 277.39-22.71L277.39-22.71Q277.93-23.46 278.6-24.13 279.27-24.8 280.05-25.31 280.83-25.81 281.71-26.09 282.59-26.37 283.59-26.37L283.59-26.37Q284.3-26.37 284.94-26.21 285.57-26.05 285.99-25.68L285.99-25.68 285.5-21.34Q285.06-21.46 284.63-21.5 284.2-21.53 283.79-21.53L283.79-21.53Q282.06-21.53 280.77-20.97 279.49-20.41 278.48-19.45 277.47-18.48 276.65-17.19 275.83-15.89 275-14.4L275-14.4 275 0 270.36 0ZM298.58 0L288.91-25.88 294.14-25.88 299.8-8.4 300.97-3.66 301.46-3.66 302.63-8.4 308.3-25.88 313.08-25.88 298.53 13.09 294.04 13.09 299.46 0 298.58 0Z" opacity="1" transform="matrix(1,0,0,1,0,0)" fill="#4790fc" class="wordmark-text-0" data-fill-palette-color="primary" id="text-0"></path></svg></g></svg></g></svg></g></svg></g><g></g></svg></g></svg></g></svg></g><g><path d="M79.163 94.082A122.216 122.216 0 0 1 316.357 94.082L312.741 94.082A118.599 118.599 0 0 0 82.779 94.082L79.163 94.082M79.163 153.118A122.216 122.216 0 0 0 316.357 153.118L312.741 153.118A118.599 118.599 0 0 1 82.779 153.118L79.163 153.118" fill="#4790fc" stroke="transparent" data-fill-palette-color="tertiary"></path></g></svg></g><defs></defs></svg><rect width="395.52" height="247.2" fill="none" stroke="none" visibility="hidden"></rect></g></svg></g></svg>